<?xml version="1.0" encoding="UTF-8" standalone="no"?>
<!DOCTYPE svg PUBLIC "-//W3C//DTD SVG 1.1//EN" "http://www.w3.org/Graphics/SVG/1.1/DTD/svg11.dtd">
<svg version="1.1" xmlns="http://www.w3.org/2000/svg" xmlns:xlink="http://www.w3.org/1999/xlink" preserveAspectRatio="xMidYMid meet" viewBox="0 0 600 390" width="600" height="390">
	<defs>
		<style type="text/css">
			.land
			{
				fill: #CCCCCC;
				fill-opacity: 1;
				stroke:white;
				stroke-opacity: 1;
				stroke-width:0.5;
				}
			.land:hover{
				cursor: pointer;
				fill: grey;
			}

		</style>
		<path d="M184.66 255.12L185.56 254.91L185.89 254.97L185.83 256.15L184.52 256.32L184.24 256.18L184.7 255.75L184.66 255.12ZM187.3 365.13L185.42 366.64L186.2 367.78L187.53 366.64L188.23 367.52L190.35 366.76L190.82 365.88L189.57 364.76L188.62 365.75L187.3 365.13ZM226.03 280.44L225.46 279.95L224.12 279.89L222.92 279.44L220.92 277.69L218.6 276.4L216.27 276.46L213.22 275.64L211.4 276.12L211.66 275.26L210.89 274.36L208.29 273.41L206.32 272.85L205.14 273.87L205.08 272.31L202.31 272.07L201.83 271.6L203.01 270.32L202.96 269.25L202.12 268.99L201.25 266.27L200.86 265.41L200.33 265.49L200.07 264.85L198.41 263.53L197.27 263.16L196.74 262.99L195.06 262.57L193.79 262.68L193.62 262.96L191.75 262.65L191.13 262.1L190.29 261.34L189.7 261.3L189.66 260.49L188.69 259.47L187.67 258.89L187.06 258.52L186.24 258.56L185.99 257.3L184.8 256.52L183.55 256.4L183.02 255.66L184.35 255.19L182.47 255.21L180.54 255.3L180.52 255.7L179.64 256.19L178.45 256L177.55 255.29L175.88 255.45L174.47 255.44L174.41 254.91L173.39 254.03L172.3 254L171.73 252.89L171.19 253.39L171.4 254.14L169.46 254.78L169.53 255.98L170.02 256.54L169.67 257.68L168.99 257.78L168.4 256.53L169.09 255.61L169.11 254.79L168.6 254.07L169.52 253.88L169.57 253.51L169.87 252.97L169.46 252.55L168.9 252.46L168.15 253.22L167.54 253.58L166.3 254.38L165.08 254.25L164.96 254.58L163.97 254.61L163.07 255.34L162.78 256.68L162.77 257.2L162.13 257.36L160.95 258.46L160.15 258.41L159.96 258.64L160.32 259.57L160.02 260.04L159.52 259.92L159.32 260.69L159.96 261.52L160.2 262.85L159.87 263.25L160.22 264.68L159.92 265.59L160.5 265.95L159.9 266.77L159.24 267.74L158.47 267.85L158.1 268.41L158.17 269.2L157.58 269.31L157.79 269.8L156.71 270.42L155.86 270.75L155.97 271.39L155.38 272.39L155.09 273.35L154.54 273.59L154.8 275L154.48 275.44L155.42 276.12L156.02 275.4L156.36 276.08L155.53 277.24L154.28 278.22L153.79 279.31L154.55 280.8L154.04 281.5L155.16 282.13L156.37 283.15L156.87 284.31L157.51 285.02L158.99 288.16L160.52 291.08L161.85 293.17L161.59 293.63L162.24 294.96L163.44 295.95L166.25 297.72L169.35 299.35L169.48 300.02L171.05 300.95L171.38 303.27L171.49 305.99L171 309.75L170.5 313.31L170.21 316.67L169.3 318.83L169.49 321.04L169.02 322.53L169.38 325.27L168.72 328.04L167.64 331.07L166.68 334.2L166.02 334.26L166.15 336.48L166.6 338.43L165.88 339.81L165.34 343.63L164.85 346.65L165.84 346.96L166.33 344.31L167.38 344.86L166.57 349.31L164.83 348.54L164.3 352.2L162.81 354.2L165.18 354.86L163.53 356.64L162.87 358.89L163.07 362.98L163.86 364.62L163.41 366.08L163.91 367.69L165.85 369.15L167.64 370.97L169.41 371.82L170.07 371.76L170.32 369.32L171.73 368.39L172.49 367.76L173.87 367.77L174.53 367.9L173.49 366.44L172.98 363.85L173.62 362.7L175.05 361.74L176.07 358.93L177.91 357.6L178.45 355.52L176.95 355.06L175.41 353.4L175.86 351.72L177.09 350.58L178.57 350.58L178.93 349.4L179.16 347.22L180.42 345.89L181.86 345.23L181.39 344.14L180.53 344.8L179.48 344.17L179.26 342.1L179.86 341.55L181.37 342.31L182.97 342.02L183.9 341.3L183.61 340.27L183.93 338.75L183.6 337.55L185.32 337.75L188.46 337.33L190.78 336.27L192.28 333.74L192.36 332.8L191.38 331.95L191.59 330.63L189.61 329.01L189.71 328.03L190.67 329.07L191.73 329.01L193.17 329.82L194.02 329.62L195.17 330L196.94 328.95L197.62 327.76L198.65 326.7L199.36 324.94L200.43 324.08L201.81 322.64L203.54 319.47L204.63 318.49L204.99 317.63L205.28 315.85L205.02 314.89L205.25 313.6L206.57 311.89L208.41 310.53L210.16 310.03L211.26 309.28L213.72 308.62L215.42 308.63L215.79 307.62L217.06 306.9L217.33 305.17L218.91 303.01L219.19 300.81L219.69 300.16L219.85 299.09L220.29 296.59L220.18 293.57L220.61 292.4L221 292.36L222.16 290.99L223.16 289.19L225.36 286.99L226.16 285.96L226.79 283.37L226.56 282.43L226.03 280.44ZM174.39 369.83L173.79 368.63L172.67 368.33L171.23 369.4L170.72 371.18L169.91 372.39L167.84 371.45L165.64 369.7L164.35 369.16L166.51 372.09L168.1 373.52L170.07 375.03L171.71 375.43L172.85 376.25L173.77 376.48L174.54 376.57L175.88 375.71L176.4 374.61L177.2 375.57L178.68 375.43L179.39 374.07L177.19 373.4L175.17 371.8L174.39 369.83Z" id="bfFLw6dfr"></path><path d="M172.86 241.34L172.01 241.37L171.73 240.78L171.31 240.82L170.39 240.4L169.17 240.39L168.97 240.67L167.62 240.41L166.66 240.34L166.31 240.79L167.3 241.05L167.29 241.68L168 242.4L167.44 242.76L166.25 242.62L164.81 242.4L164.68 242.93L165.51 243.43L166.24 243.13L167.2 243.24L167.93 243.13L168.97 243.41L169.05 243.88L169.45 244.14L170.08 243.01L170.59 242.78L170.83 243.18L171.44 243.08L171.72 242.77L172.23 242.85L172.95 242.79L173.7 243.14L174.28 242.47L173.51 241.87L172.81 241.83L172.86 241.34ZM157.61 228.69L157.72 229.33L159.42 229.05L159.38 228.6L158.34 228.55L157.61 228.69ZM158.5 232.51L159.09 233.01L159.48 233.99L159.87 233.91L159.86 232.92L159.31 231.5L158.84 231.42L158.5 232.51ZM176.19 242.64L175.97 242.88L176.06 243.58L176.97 243.52L178.15 243.53L178.55 243.12L178.26 242.79L177.47 242.65L176.19 242.64ZM163.93 239.05L162.78 238.99L162.89 238.52L161.96 238.18L161.45 238.2L160.47 237.45L159.15 236.41L158.59 236.01L157.13 236.2L156.51 235.58L155.04 235.01L153.81 234.99L152.46 234.87L152.08 235.05L150.9 235.22L150.1 235.55L149.4 235.92L149.06 236.53L148.23 237.05L148.9 237.2L149.67 237.02L149.9 236.61L150.54 236.59L151.67 235.71L153.2 235.8L152.61 236.21L153.16 236.54L155.2 236.81L155.67 237.16L157.12 237.6L158 237.54L158.37 238.49L158.91 238.96L159.92 239.08L160.56 239.51L159.51 240.43L161.75 240.27L162.82 240.4L163.88 240.31L164.92 240.1L165.12 239.73L163.93 239.05ZM159.81 242.69L159.45 242.64L158.8 242.75L158.61 243.13L159.5 243.72L160.37 243.99L160.85 243.71L161.95 243.68L161.69 243.24L160.87 242.84L159.81 242.69ZM160.7 229.04L159.46 228.25L159.46 228.45L160.17 229.14L160.14 230.05L160.43 230.27L160.7 229.04ZM33.55 237.58L33.61 237.64L33.81 238.02L34.35 238.08L34.47 238.11L34.55 238.01L34.1 237.46L33.96 237.35L33.55 237.58ZM31.27 236.64L31.19 236.77L31.71 237.07L31.89 236.91L31.86 236.52L31.51 236.48L31.27 236.64ZM35.9 238.43L35.95 238.25L35.18 238.18L35.06 238.38L35.9 238.43ZM36.18 238.52L36.03 238.66L36.04 238.77L36.22 238.9L36.48 239.25L37.01 239.14L37.14 238.94L36.74 238.67L36.18 238.52ZM19.21 153.77L20.16 154.62L21.19 155.2L22.15 154.71L22 153.51L20.76 153.23L19.21 153.77ZM17.16 143.95L17.28 143.57L16.02 143.2L16.02 144.65L17.16 143.95ZM96.5 81.4L97.97 81.07L99.17 78.71L99.38 73.26L97.24 74.32L94.84 74.22L91.62 78.79L88.97 83.8L91.09 85.2L93.6 84.21L96.5 81.4ZM99.21 90.54L106.28 89.82L103.03 92.48L103.23 94.39L105.61 94.26L109.55 91.7L114.85 90.77L115.81 87.86L115.53 84.75L113.89 84.47L112.5 85.55L111.89 83.24L111.36 80.06L109.74 79.27L108.3 81.73L110.54 87.9L107.81 87.42L105.03 83.63L100.63 81.4L99.15 83.26L97.02 89.45L99.21 90.54ZM92.72 110.43L92.72 108.27L94.66 104.69L98.5 100.96L100.47 99.58L98.79 97.24L97.27 95.6L93.27 95.28L91.04 94.07L85.76 94.98L87.28 98.46L85.93 102.04L84.85 105.88L84.18 108.03L87.79 110.65L88.61 112.76L92.72 110.43ZM197.01 185.37L197.5 183.63L195.94 182.89L195.22 183.48L193.83 182.82L194.38 181.98L193.33 181.46L192.31 182.28L193.34 180.15L194.18 178.59L194.48 177.91L193.76 177.8L192.4 178.66L191.43 180.07L189.81 183.93L188.5 185.36L189.18 186L188.21 186.82L188.45 187.5L191.48 187.57L193.16 187.44L194.66 188L193.56 189.08L194.49 189.15L196.3 187.16L196.74 187.45L196.4 189.33L197.42 189.76L198.13 189.68L198.79 187.66L198.3 186.22L198.11 184.96L197.01 185.37ZM181.01 188.8L180.42 189.51L180.81 190.26L182.8 191.22L183.38 191.07L184.15 190.15L182.7 190.21L181.56 189.91L181.01 188.8ZM38.07 240.07L37.47 239.79L37.36 239.76L37.27 239.91L37.37 240.24L37.1 240.5L37.02 240.69L37.28 241.29L37.23 241.75L37.62 241.99L37.85 241.72L38.35 241.46L38.97 241.11L39.01 241.02L38.61 240.44L38.35 240.21L38.07 240.07ZM182.82 182.53L180.76 181.92L180.22 182.13L181.68 183.27L183.7 184.02L184.46 183.97L184.42 183.54L182.82 182.53ZM256.48 35.1L248.88 39.31L244.9 43.17L246.62 37.05L245.32 33.06L242.28 36.47L237.57 32.62L232.03 33.87L231.24 31.84L239.66 30.71L245.65 30.2L248.54 25.56L238.75 15.19L226.26 13.43L220.73 14.78L218.73 19.78L213.24 19.18L207.99 26.77L207.78 31.84L211.5 37.85L208.26 34.28L206.06 33.39L202.33 29.05L198.17 35.36L196.47 31.84L191.66 31.94L186.85 33.73L183.15 36.66L183.8 41.44L181.52 42.54L176.11 49.42L174.74 53.13L178.97 56.34L178.37 59.49L172.64 63.48L166.71 67.31L166.49 70.29L170.02 73.32L176.71 75.2L173.57 75.58L169.46 77.79L172.18 82.07L173.99 84.16L177.81 83.68L181.99 83.42L185.3 83.89L189.5 87.62L189.48 90.21L191.47 92.54L193.36 98.62L194.6 102.38L195.56 104.35L193.81 109.1L195.12 110.32L196.67 109.63L198.07 111.3L200.76 114.33L197.57 113.07L196.12 113.14L195.51 115.64L195.61 118.74L197.53 120.19L198.94 119.56L199.79 118.89L201.58 117.29L201.25 120.78L200.63 122.6L198.28 124.19L196.73 129.02L197.77 130.43L197.21 133.32L199.37 136.82L199.59 140.1L200.38 142.42L203.09 146.7L204.13 149.94L205.65 151.71L208.78 151.73L211.09 154.31L213.29 154.12L214.1 151.01L214.8 148.31L214.17 145.68L216.72 142.92L217.51 140.59L217.53 138.05L218.87 135.75L221.12 134.87L223.2 133.93L224.28 133.78L227.65 131.05L229.82 126.79L231.44 125.19L233.16 125.17L237.74 123.71L241.99 120.29L246.19 116.37L244.03 116.12L239.91 115.92L241.73 113.46L241.19 110.19L243.13 112.97L244.33 114.79L247.12 113.88L246.53 110L244.48 106.94L242.37 105.66L243.17 104.28L246.27 106.41L246.25 104.11L244.29 100.49L246.47 100.48L248.67 99.63L249.19 97.67L247.37 95.36L250.85 94.95L248.81 89.86L250.49 89.29L250.12 83.92L247.23 80.4L249.8 78.24L252.25 77.96L250.37 73.31L250.32 64.8L251.58 59.44L253.41 53.02L249.79 52.58L254.79 50.98L255.67 48.81L262.04 41.74L261.17 37.22L256.48 35.1ZM109.31 70.65L107.11 69.47L104.83 70.25L103.56 72.62L105.88 74.97L108.79 72.88L109.31 70.65ZM40.63 161.04L39.21 162.08L39.45 163.43L40.24 164.16L41.81 163.07L43.16 161.7L42.5 160.79L41.47 160.59L40.63 161.04ZM73.57 171.57L72.83 171.22L72.73 172.07L73.02 173.23L73.82 174.04L74.4 175.23L75.34 176.4L75.96 176.41L74.6 174.34L75.07 171.36L73.57 171.57ZM87.31 184.08L85.74 183.09L84.97 181.95L84.44 181.11L82.97 180.85L82.01 180.48L80.37 179.94L80.23 180.51L80.83 181.84L82.45 182.28L82.73 182.96L84.13 183.8L84.59 184.64L87.16 185.71L87.95 185.38L87.31 184.08ZM187.6 191.33L185.66 192.79L182.2 194.1L180.65 194.98L178.9 196.54L177.71 196.38L177.65 194.55L180.37 192.73L177.86 192.8L176.12 193.07L176.39 193.79L174.72 194.85L173.12 195.6L171.46 196.24L170.64 197.51L170.37 197.99L170.35 199.11L170.87 200.22L171.52 200.27L171.36 199.51L171.83 199.98L171.7 200.57L170.65 200.91L169.9 200.87L168.74 201.24L168.06 201.34L167.15 201.44L165.85 202.04L168.15 201.65L168.61 202.04L166.42 202.66L165.42 202.66L165.46 202.41L164.99 202.98L165.45 203.08L165.11 204.54L163.97 206.09L163.86 205.58L163.51 205.47L163 204.97L163.32 206.05L163.71 206.41L163.73 207.16L163.23 207.93L162.35 209.5L162.2 209.42L162.69 208.08L161.89 207.32L161.71 205.67L161.41 206.53L161.74 207.79L160.71 207.48L161.79 208.12L161.85 209.98L162.3 210.12L162.46 210.79L162.68 212.72L161.69 214.13L160.07 214.7L159.04 215.8L158.26 215.93L157.47 216.61L157.24 217.24L155.53 218.44L154.64 219.32L153.92 220.4L153.68 221.69L153.96 222.94L154.48 224.48L155.18 225.73L155.19 226.5L155.93 228.53L155.88 229.7L155.82 230.38L155.43 231.43L154.96 231.65L154.19 231.44L153.94 230.69L153.35 230.3L152.51 228.8L151.79 227.46L151.55 226.78L151.88 225.6L151.44 224.63L150.22 223.13L149.61 222.86L148.03 223.67L147.75 223.58L146.99 222.75L146.01 222.3L144.24 222.53L142.85 222.33L141.66 222.45L141.01 222.73L141.29 223.21L141.26 223.94L141.6 224.29L141.3 224.52L140.72 224.26L140.14 224.6L139 224.54L137.84 223.6L136.47 223.82L135.33 223.41L134.36 223.54L133.04 223.96L131.62 225.28L130.07 226.04L129.21 226.89L128.85 227.68L128.83 228.88L128.91 229.72L129.19 230.28L129.2 230.28L129.2 230.3L129.21 230.31L129.19 230.31L128.59 231.8L128.32 233.03L128.2 235.31L128.05 236.13L128.33 237.04L128.81 237.86L129.12 239.15L130.16 240.38L130.52 241.32L131.14 242.13L132.8 242.57L133.45 243.25L134.82 242.8L136.01 242.64L137.18 242.34L138.17 242.06L139.16 241.39L139.53 240.42L139.66 239.03L139.93 238.55L140.99 238.11L142.65 237.72L144.03 237.78L144.98 237.64L145.35 237.99L145.3 238.79L144.46 239.78L144.09 240.79L144.37 241.07L144.14 241.79L143.75 243.07L143.35 242.65L143.02 242.67L143.03 242.91L143.33 242.92L143.3 243.37L143.05 244.07L143.19 244.33L143.02 244.91L143.12 245.06L142.94 245.88L142.63 246.32L142.35 246.37L142.04 246.93L142.55 247.22L142.68 246.98L143.14 247.18L143.3 247.25L143.65 246.96L144.1 246.94L144.24 247.07L144.49 246.99L145.21 247.14L145.94 247.09L146.44 246.91L146.62 246.74L147.12 246.82L147.49 246.93L147.9 246.89L148.21 246.75L148.93 246.98L149.18 247.01L149.65 247.31L150.1 247.67L150.67 247.92L151.09 248.36L150.95 248.52L150.87 248.88L151.03 249.46L150.67 250.01L150.51 250.65L150.45 251.36L150.54 251.77L150.58 252.49L150.34 252.64L150.19 253.32L150.3 253.74L149.98 254.15L150.05 254.57L150.29 254.84L150.69 255.7L151.29 256.33L152.03 257.01L152.59 257.57L152.55 257.9L153.18 257.97L153.33 257.84L153.76 258.23L154.53 258.12L155.19 257.72L156.14 257.4L156.68 256.93L157.54 257.02L157.48 257.18L158.35 257.23L159.05 257.51L159.56 257.98L160.15 258.41L159.96 258.65L160.32 259.57L160.03 260.04L159.52 259.92L159.32 260.68L158.8 260.23L158.47 259.38L158.85 258.96L158.46 258.86L158.17 258.34L157.38 257.9L156.7 258L156.39 258.55L155.75 258.94L155.41 259L155.26 259.33L156 260.17L155.58 260.38L155.35 260.61L154.62 260.69L154.35 259.75L154.15 260.02L153.63 259.93L153.32 259.29L152.68 259.19L152.27 259.01L151.6 259.01L151.55 259.35L151.37 259.11L150.52 258.76L150.2 258.43L150.38 258.16L150.33 257.81L149.89 257.44L149.28 257.13L148.74 256.93L148.64 256.46L148.22 256.18L148.32 256.64L148.01 257.02L147.65 256.58L147.15 256.43L146.94 256.11L146.95 255.63L147.16 255.13L146.72 254.9L147.07 254.6L146.53 254.1L145.8 253.46L145.46 252.92L144.8 252.43L144.01 251.71L144.19 251.46L144.45 251.7L144.56 251.58L144.3 251.09L143.82 250.95L143.64 251.32L142.74 251.3L142.18 251.15L141.53 250.83L140.66 250.73L140.22 250.38L139.42 250.11L138.44 250.08L137.73 249.76L136.88 249.1L135.11 247.37L134.31 246.84L133.03 246.42L132.16 246.53L130.9 247.14L130.11 247.3L129.01 246.88L127.83 246.57L126.37 245.83L125.2 245.6L123.43 244.84L122.12 244.06L121.73 243.63L120.85 243.53L119.25 243.01L118.6 242.27L116.92 241.34L116.14 240.29L115.76 239.48L116.28 239.32L116.12 238.85L116.48 238.42L116.49 237.84L115.96 237.09L115.82 236.42L115.29 235.57L113.92 233.89L112.34 232.56L111.58 231.49L110.24 230.79L109.95 230.36L110.19 229.29L109.4 228.88L108.47 228.04L108.08 226.81L107.24 226.67L106.33 225.74L105.6 224.88L105.53 224.32L104.69 222.97L104.14 221.59L104.16 220.89L103.03 220.17L102.51 220.25L101.61 219.75L101.36 220.49L101.62 221.36L101.77 222.71L102.31 223.46L103.47 224.69L103.73 225.11L103.97 225.23L104.17 225.84L104.45 225.82L104.77 226.95L105.24 227.4L105.57 228.02L106.56 228.91L107.08 230.52L107.54 231.28L107.97 232.08L108.06 232.98L108.81 233.04L109.44 233.82L110.01 234.57L109.97 234.88L109.31 235.49L109.03 235.49L108.62 234.46L107.6 233.49L106.47 232.67L105.67 232.23L105.72 230.98L105.49 230.04L104.74 229.5L103.66 228.73L103.46 228.95L103.07 228.49L102.1 228.08L101.18 227.05L101.29 226.92L101.93 227.02L102.51 226.36L102.57 225.57L101.37 224.3L100.45 223.8L99.87 222.68L99.29 221.5L98.57 220.04L97.94 218.41L97.93 218.41L97.67 217.46L96.65 216.39L95.92 216.17L95.75 215.64L94.87 215.54L94.31 215.03L92.86 214.85L92.47 214.54L92.28 213.5L90.76 211.57L89.45 208.87L89.51 208.41L88.82 207.76L87.61 206.09L87.39 204.44L86.56 203.33L86.9 201.63L86.84 199.85L86.34 198.23L86.95 196.22L87.14 194.24L87.33 192.24L87.05 189.22L86.55 187.25L86.1 186.16L86.28 185.71L88.54 186.5L89.38 188.68L89.76 188.07L89.51 186.17L88.98 184.23L88.77 184.23L85.74 181.87L84.62 180.81L81.79 179.8L80.92 177.59L81.14 176.03L79.14 174.94L78.87 172.84L76.97 170.92L76.94 169.53L76.08 168.51L74.7 167.64L74.26 165.2L72.25 162.9L71.41 160.15L69.91 159.96L67.42 159.88L65.58 159.02L62.35 155.88L60.85 155.29L58.12 154.18L55.95 154.45L52.88 153L51.02 151.65L49.29 152.32L49.61 154.52L48.75 154.72L46.94 155.36L45.56 156.4L43.83 157.05L43.6 155.24L44.31 152.16L45.97 151.17L45.54 150.35L43.55 152.15L42.48 154.25L40.23 156.46L41.37 157.94L39.89 160.08L38.21 161.32L36.65 162.2L36.26 163.48L33.82 164.95L33.32 166.26L31.49 167.45L30.42 167.24L28.96 168.01L27.37 168.94L26.07 169.85L23.39 170.62L23.14 170.17L24.85 168.9L26.38 168.06L28.05 166.55L29.99 166.24L30.76 165.09L32.93 163.39L33.28 162.81L34.44 161.79L34.71 159.56L35.5 157.79L33.7 158.71L33.2 158.19L32.35 159.27L31.33 157.75L30.91 158.83L30.32 157.33L28.76 158.54L27.8 158.54L27.67 156.74L27.95 155.61L26.94 154.51L24.9 155.1L23.58 153.63L22.51 152.88L22.51 151.06L21.3 149.68L21.9 147.78L23.18 145.9L23.74 144.14L25 143.89L26.08 144.44L27.34 142.76L28.47 143.06L29.67 141.97L29.38 140.34L28.5 139.69L29.66 138.29L28.7 138.33L27.04 139.12L26.57 139.92L25.33 139.12L23.12 139.53L20.83 138.66L20.17 137.18L18.19 135L20.39 133.4L23.87 131.5L25.16 131.5L24.95 133.44L28.25 133.29L26.98 130.87L25.05 129.35L23.94 127.32L22.44 125.55L20.3 124.22L21.17 121.98L23.94 121.84L25.92 119.84L26.29 117.65L27.89 115.47L29.41 114.94L32.37 112.84L33.81 113.16L36.22 110.59L38.58 111.61L39.71 113.77L40.41 112.85L43.06 113.13L42.96 114.22L45.35 115.02L46.95 114.55L50.25 116.02L53.25 116.46L54.46 117.06L56.54 116.31L58.91 117.68L60.61 118.31L63.53 119.39L65.99 121.51L67.62 121.91L68.99 120.09L70.89 118.69L73.21 119.24L75.56 117.26L78.12 116.11L79.19 118L80.36 116.94L80.71 114.76L81.79 115.26L84.44 119.34L86.52 116.28L86.73 119.71L88.65 118.98L89.24 117.66L91.14 117.92L93.53 119.8L97.19 121.41L99.34 122.15L100.88 121.87L102.99 124.05L100.79 126.13L103.62 127.02L107.84 126.53L109.17 125.81L110.84 128.27L112.54 126.2L110.95 124.42L111.96 122.96L113.86 122.77L115.11 122.34L116.37 123.37L117.94 125.66L119.69 125.32L122.45 127.19L124.88 126.54L127.16 126.64L126.98 124.03L128.37 123.29L130.79 124.73L130.78 128.64L131.77 125.36L133.03 125.47L133.74 121.17L132.07 118.43L130.24 116.59L130.37 111.38L132.22 107.8L134.28 108.6L135.87 110.78L137.99 116.13L136.6 118.37L139.51 119.28L139.5 123.73L141.6 120.34L143.47 123.14L143 126.27L144.51 129.03L146.14 126.07L147.28 122.41L147.36 117.55L149.59 117.9L151.89 118.56L153.99 120.77L154.09 122.92L152.92 125.19L154.03 127.41L153.82 129.38L150.76 132.15L148.59 132.75L146.97 131.58L146.5 133.53L144.99 136.73L144.54 138.34L142.72 140.79L140.49 141.03L139.25 142.52L139.15 144.78L137.33 145.21L135.42 147.94L133.72 151.63L133.11 154.13L133.03 157.7L135.33 158.2L136.03 160.99L136.76 163.19L138.95 162.62L141.85 163.87L143.42 164.95L144.54 166.28L146.49 167.04L148.15 168.2L150.73 168.36L152.44 168.62L152.18 170.96L152.66 173.61L153.8 176.5L156.12 178.88L157.33 178.07L158.18 175.46L157.36 171.33L156.26 169.92L158.76 168.65L160.54 166.72L161.4 164.76L161.27 162.86L160.21 160.38L158.31 158.14L160.16 154.93L159.48 152.07L158.95 146.95L160.04 146.17L162.72 147.09L164.33 147.41L165.62 146.53L167.08 147.67L169 149.59L169.48 150.86L172.27 151.1L172.22 153.78L172.74 157.68L174.17 158.15L175.3 159.92L177.57 158.26L179.06 154.88L180.1 153.43L181.32 156.21L183.35 160.05L185.08 163.54L184.45 165.33L186.53 166.91L187.94 168.48L190.43 169.18L191.44 170.05L192.05 172.31L193.27 172.66L193.9 173.65L194.01 176.54L192.87 177.49L191.75 178.38L189.18 179.26L187.21 181.28L184.56 181.68L181.22 181.17L178.87 181.15L177.25 181.32L175.94 183.05L173.95 184.11L171.69 187.22L169.89 189.34L171.22 188.96L173.73 185.92L177.01 183.95L179.35 183.71L180.73 184.88L179.25 186.46L179.75 188.95L180.26 190.66L182.29 191.78L184.88 191.46L186.44 188.91L186.59 190.51L187.6 191.33ZM126.42 118.29L125.04 119.68L127.18 121.66L128.45 121.18L130.56 122.5L131.53 120.98L130.57 119.29L130.1 118.43L129.17 117.62L127.51 116.32L126.42 118.29ZM150.1 147.38L151.21 147.46L153.04 145.6L153.07 144.93L150.92 144.9L149.76 146.47L150.1 147.38ZM157.16 147.46L156.76 146.77L156.12 146.7L155.52 147.7L155.45 147.93L155.86 148.92L156.55 149.2L157.16 147.46ZM128.82 98.01L126.03 98.71L124.17 97.54L122.32 100.21L124.04 103.72L120.85 103.06L120.82 104.74L124.7 108.68L125.79 110.56L127.29 110.97L129.86 109.07L130.14 104.49L127.77 102.22L129.23 99.62L128.82 98.01ZM120.37 114.67L117.74 112.33L117.26 108.88L116.28 103.9L114.52 101.76L112.97 100.89L111.59 101.69L112.7 107.04L111.91 109.12L110.64 104.11L109.21 102.37L107.44 105.06L105.26 102.4L101.78 104L102.56 101.51L100.96 100.47L96.77 103.73L95.68 105.8L94.37 109.58L97.11 110.87L99.52 110.8L95.9 112.73L96.72 114.48L98.94 114.57L102.28 114.2L105.31 115.29L103.27 116.1L101.06 115.89L98.65 116.68L97.6 117.16L99.53 120.7L100.92 120.21L103.05 121.41L103.9 123.45L106.69 123.04L110.65 122.39L113.58 120.92L115.4 120.65L118.09 121.83L120.92 122.51L121.44 120.92L120.44 119.21L123.01 118.86L123.19 116.87L120.37 114.67ZM154.73 140.9L153.58 141.18L153.44 139.47L151.65 138.33L149.94 137.07L149.03 136.09L148.23 136.66L147.94 135.01L146.81 134.71L146.27 138.13L146.07 140.98L144.71 142.73L146.83 142.39L147.36 144.43L149.59 142.63L151.14 140.74L152.02 142.34L154.45 143.18L155.84 142.08L154.73 140.9ZM141.36 46.14L144.13 49.42L149.6 48.81L153.12 49.91L150.68 53.29L149.45 52.29L145.17 51.9L145.84 56.53L148.05 59.9L147.6 62.8L144.83 64.73L143.56 67.79L146.1 69.26L148.23 74.03L144.05 70.85L143.09 71.38L143.86 76.61L140.97 78.19L141.17 81.45L144.12 81.8L146.45 82.61L151.05 81.58L155.14 83.41L159.31 79.39L159.28 77.71L156.61 77.98L156.39 76.39L158.58 74.26L159.32 71.38L161.74 69.25L163.22 66.59L161.93 62.63L163.01 61.15L160.85 60.1L165.59 59.19L166.59 57.43L169.81 55.98L172.49 48.47L175.04 45.71L178.73 39.51L175.33 39.56L176.75 37.17L180.53 34.94L184.35 29.97L184.41 26.78L181.55 23.41L178.19 21.77L174.01 20.76L170.63 19.93L167.24 19.09L162.72 21.31L161.89 19.9L157.11 20.45L154.3 21.88L152.24 23.92L151.05 30.47L149.35 27.11L147.4 26.48L145.11 30.92L142.04 32.79L140.21 33.16L137.89 35.3L138.23 39.01L140.06 42.07L141.36 46.14ZM107.57 64.37L106.74 64L105.13 66.39L105.1 67.51L107.7 67.51L109.61 65.99L107.57 64.37ZM173.55 114.55L169.77 112.68L168.15 109.58L165.24 110.69L165.04 108.54L162.88 106.13L159.41 103.5L157.94 105.57L154.84 107.05L155.07 103.67L152.39 98.07L148.42 100.33L146.98 104.63L145.75 101.32L146.9 97.77L142.86 99.25L141.25 101.48L140.05 106.17L140.55 111.22L142.77 111.24L141.13 113.43L142.43 115.08L144.97 115.78L148.28 117.13L153.97 118.14L156.8 117.56L157.64 116.21L158.87 117.77L160.25 118.03L161.91 120.79L160.9 121.9L164.07 123.37L166.47 125.42L167.07 126.84L167.5 128.65L165.47 132.51L164.93 134.43L165.45 135.78L162.23 136.26L159.29 136.33L158.26 139.05L159.58 140.29L164.11 139.72L164.08 138.66L166.36 140.42L168.69 142.25L168.15 143.24L170.04 144.92L173.4 146.89L177.64 148.22L177.38 147.06L175.75 145.01L173.55 142.01L177.47 144.8L179.44 145.73L179.98 143.25L178.97 139.74L178.32 138.77L176.2 137.08L174.55 134.9L174.74 132.7L176.77 132.22L179.23 135.9L181.15 137.49L183.9 133.1L184.38 130.35L181.92 130.09L179.68 126.35L177.19 125.44L173.51 122.66L176.38 120.64L174.91 116.41L173.55 114.55ZM163.67 127.43L163.65 125.66L162.43 124.5L161 125.09L160.34 127.42L160.73 129.4L162.48 129.2L163.49 128L163.67 127.43ZM116.5 98.68L114.4 98.9L113.87 99.67L116.31 103.44L117.69 99.89L116.5 98.68ZM127.6 90.8L128.31 86.2L128.26 82.88L127.07 79.78L126.95 80.67L124.75 80.28L122.4 82.56L120.71 82.36L120.81 87.33L123.38 86.85L123.34 90.46L125.02 91.42L127.6 90.8ZM156.36 103.21L156.81 103.53L158.52 102.82L160.21 102.93L161.87 103.09L161.73 101.61L159.03 98.61L155.45 98.01L154.7 98.38L154.64 100.36L156.36 103.21ZM128.93 71.75L131.25 70.2L131.67 67.43L129.8 64.68L128.89 64.15L126.87 63.83L126.99 67.12L127.66 70.01L128.93 71.75ZM116.63 67.72L120.11 68.01L122.68 70.49L125.23 71.33L124.63 68.16L123.43 64.41L119.2 61.42L116.14 60.28L116.25 63.46L118.14 65.39L116.63 67.72ZM135.45 59.61L134.21 61.84L134.19 64.8L135.87 68.01L139.11 69L141.88 68.44L144.77 62.46L146.91 59.98L145.03 57.2L143.79 51.26L141.23 49.48L138.6 47.43L136.6 42.1L132.96 42.62L133.65 44.94L132.05 45.63L130.96 48.6L129.88 52.76L130.87 56.81L132.59 59.67L135.45 59.61ZM135.37 103.37L137.23 102.34L139.57 97.46L136.58 96.09L133.32 95.89L131.77 97.43L130.95 99.79L130.93 102.48L131.91 107.05L133.69 107.24L135.37 103.37ZM134.55 73.34L133.45 71.98L130.29 71.87L130.71 73.92L133.64 74.39L134.36 74.17L134.55 73.34ZM134.72 90.93L134.15 89L132.78 86.81L130.53 88.49L129.7 91.24L131.6 92.79L133.86 93.24L134.72 90.93ZM146.47 94.31L150.96 93.41L152.96 94.12L155.29 92.86L156.27 91.28L155.92 88.76L154.24 86.4L151.7 85.95L148.51 86.49L146.03 87.85L143.74 87.33L141.64 87.05L140.64 85.54L138.85 84.09L139.2 81.62L137.85 79.39L134.77 79.41L133.04 77.19L129.81 76.74L129.22 79.58L131.04 81.67L134.27 82.48L135.84 85.32L136.03 88.44L136.57 91.79L140.73 93.69L143.26 94.41L146.47 94.31Z" id="c19Stb1YbT"></path><path d="M481.3 272.33L481.54 271.39L482.35 271.54L482.43 270.18L482.29 269.55L481.36 269.41L481.25 268.56L480.73 269.13L480.42 270.37L480.88 272.36L481.51 273.34L481.95 273.15L481.3 272.33ZM479.59 277.83L480.18 277.31L479.79 276.8L478.2 276.87L478.51 277.55L479.59 277.83ZM473.28 255.91L472.89 256.35L472.56 256.77L473.53 257.86L474.02 257.39L474.51 256.39L475.07 255.87L475.22 254.36L474.06 255.89L474.31 254.82L473.45 254.93L473.28 255.91ZM472.03 254.08L471.92 254.89L471.97 255.62L472.96 255.15L473.69 254.48L473.72 253.82L472.72 253.82L471.79 253.32L472.03 254.08ZM470.81 252.82L471.22 251.44L470.68 250.87L469.34 250.81L470.14 252.03L470.81 252.82ZM478.14 285.09L476.8 285.44L476.61 285.81L475.07 286.44L474.39 287.4L474.25 287.93L474.44 288.12L475.78 287.78L476.8 286.6L478.11 286.15L479.74 285.46L480.32 285.04L479.73 284.84L479.23 285.03L478.14 285.09ZM471.61 232.82L471.89 231.79L471.17 231.27L469.92 232.57L469 234.25L469.18 235.5L470.01 236.92L470.67 235.54L471.61 232.82ZM477.01 252.3L475.51 252.27L476.47 253.49L476.49 254.09L475.57 253.96L475.82 254.92L476.28 255L476.35 256.11L477.09 255.76L476.71 254.79L476.67 254.26L477.88 254.67L477.44 252.89L477.01 252.3ZM473.44 258.97L472.45 259.41L471.84 260.73L472.09 261.19L473.25 260.31L473.99 260.38L474.48 259.72L475.47 260.46L475 261.21L475.44 262.34L477.28 263.25L477.72 262.52L477.22 261.37L477.95 260.58L478.52 262.17L479.06 260.74L478.96 259.86L478.8 258.81L478.69 258.23L478.55 257.44L477.29 256.69L477.38 257.91L476.28 257.95L476.02 258.66L474.83 259.09L474.29 258.38L473.44 258.97ZM499.94 202.8L500.21 205.09L499.23 207.53L498.34 208.3L496.05 210.26L495.01 209.33L493.37 212.77L491.7 212.38L488.58 212.95L487.44 214.25L485.86 215.22L485.04 216.4L483.56 216.97L484.2 218.25L485.19 218.78L484.8 220.43L485.56 221.14L486.57 220.38L487.61 217.25L486.03 215.88L487.86 215.84L489.71 214.95L492.43 214.54L492.5 215.94L493.55 216.66L495.78 214.52L498.53 214.4L500.53 213.51L501.34 212.16L501.07 211.19L501.66 209.64L501.63 207.61L503.08 205.6L503.12 203.96L502.27 201.11L500.6 201.5L499.94 202.8ZM503.53 179.49L503.46 182.75L503.1 184.56L503.28 187.09L503.11 189.33L503.4 191.22L504.42 189.48L505.61 190.84L505.66 189.25L504.13 186.89L505.09 183.49L507.41 184.27L505.83 179.99L505.19 177.47L505.23 174.96L504.68 172.45L504.28 170.69L503.58 171.07L504.2 172.3L502.75 173.51L502.61 177.03L503.53 179.49ZM481.57 276.36L481.19 277.21L482.28 277.27L483.16 277.17L484.46 277.3L485.78 277.94L485.22 276.75L483.5 276.29L481.57 276.36ZM374.39 231.13L372.68 230.74L370.92 230.51L370.25 228.38L369.5 228.07L368.3 228.38L366.73 229.22L364.81 228.65L363.23 227.31L361.73 226.8L360.68 225.12L359.53 222.74L358.69 223.03L357.69 222.44L357.11 223.14L356.18 223.05L356.51 223.84L356.37 224.25L356.87 225.59L357.48 227.12L358.25 227.51L358.52 228.13L359.59 228.86L359.68 229.58L359.52 230.16L359.72 230.74L360.17 231.22L360.38 231.79L360.62 232.2L360.51 230.95L360.94 230.05L361.36 229.86L361.83 230.4L361.86 231.41L361.52 232.42L361.82 233.07L362.1 232.99L362.16 233.46L363.38 233.19L364.67 233.24L365.62 233.29L366.69 232.13L367.86 231.03L368.85 229.97L369.3 229.38L369.49 229.53L369.35 230.24L369.14 230.55L369.35 231.91L370.06 233.08L370.93 233.7L372.08 233.92L373 234.23L373.71 235.2L374.13 235.76L374.69 235.97L374.69 236.35L374.12 237.35L373.87 237.82L373.21 238.35L372.62 239.49L371.91 239.41L371.59 239.8L371.34 240.64L371.53 241.74L371.38 241.94L370.66 241.94L369.69 242.55L369.54 243.35L369.18 243.7L368.2 243.68L367.59 244.09L367.6 244.75L366.84 245.2L365.98 245.05L364.94 245.6L364.21 245.69L363.08 246.13L362.78 246.84L362.74 247.39L361.18 248.07L358.68 248.83L357.28 249.96L356.6 250.04L356.13 249.95L355.21 250.62L354.21 250.93L352.9 251.01L352.51 251.1L352.17 251.52L351.75 251.63L351.51 252.04L350.74 252.01L350.24 252.22L349.15 252.14L348.75 251.21L348.79 250.33L348.54 249.86L348.23 248.68L347.78 248.01L348.09 247.94L347.93 247.2L348.12 246.89L348.05 246.18L347.85 245.49L347.38 245L347.26 244.35L346.45 243.77L345.62 242.4L345.18 241.05L344.09 239.91L343.4 239.65L342.36 238.06L342.18 236.9L342.25 235.9L341.35 234.02L340.62 233.36L339.77 233.01L339.26 232.03L339.34 231.64L338.91 230.75L338.45 230.36L337.84 229.07L336.89 227.66L336.09 226.46L335.31 226.46L335.55 225.49L335.63 224.87L335.82 224.16L335.76 223.9L334.74 220.81L335.19 220.2L335.08 220.1L335.5 219.24L335.82 217.85L336.04 217.38L336.08 217.36L336.64 215.84L337.42 214.51L337.45 214.45L337.3 212.99L337.68 212.2L338.1 211.79L338.52 211.36L338.61 210.28L339.12 210.66L340.84 210.12L341.67 210.48L342.96 210.47L344.76 209.74L345.61 209.78L347.39 209.48L348.05 209.17L349.87 209.43L350.43 209.92L351.17 209.59L350.32 208.01L350.62 207.41L350.14 205.11L351.21 204.53L351.45 205.3L352.24 206.22L353.32 206.49L353.88 206.43L355.73 204.95L356.32 204.8L356.77 205.39L356.24 206.39L357.21 207.42L357.6 207.33L358.1 208.78L359.58 209.19L360.67 210.17L362.89 210.51L365.33 210L365.48 209.54L365.53 209.53L365.24 208.14L365.47 206.06L364.24 205.38L364.65 204L363.61 203.88L363.95 202.16L365.43 202.66L366.8 202.01L365.66 200.76L365.21 199.57L363.95 200.1L363.79 201.63L363.3 200.28L363.21 199.76L363.6 198.89L363.3 198.15L361.48 197.43L360.77 195.5L359.91 194.94L359.86 194.23L361.38 194.44L361.44 192.83L362.77 192.47L364.14 192.8L364.42 190.62L364.14 189.22L362.57 189.33L361.24 188.77L359.43 189.77L357.97 190.25L357.18 189.88L357.33 188.71L356.33 187.17L355.17 187.23L353.85 185.65L354.75 183.86L354.29 183.37L355.54 180.71L357.15 182.12L357.34 180.35L360.57 177.64L363.02 177.57L366.46 179.3L368.32 180.3L369.98 179.26L372.46 179.21L374.46 180.48L374.91 179.75L377.11 179.86L377.5 178.68L374.97 176.95L375.17 176.79L375 176.72L374.56 175.68L373.51 175.3L373.46 173.82L374.09 172.6L374.83 171.82L374.44 170.84L373.38 170.25L372.35 170.87L371.29 171.71L370.29 170.42L369.62 169.39L368.89 168.03L370.61 167.83L372.04 167.47L372.97 165.98L372.8 164.78L371.62 163.8L371.93 162.45L373.14 160.93L374.13 158.95L375.12 156.16L375.87 151.23L376.92 140.09L379.84 137.82L382.53 134.78L384.72 133.04L386.82 130.89L387.95 128.63L387.44 124.54L388.33 125.31L389.38 123.1L387.79 120.8L387.75 119.87L385.86 119.43L386.37 117.3L385.54 113.68L385.49 112.15L388.38 107.69L389.4 102.99L390.56 101.94L394.7 103.34L395.03 106.23L393.54 110.29L394.51 111.85L395.02 115.16L394.66 121.33L396.38 123.97L395.71 126.77L392.65 132.46L394.44 133.03L395.07 131.63L396.78 130.61L397.2 128.63L398.55 126.68L397.64 124.31L398.37 121.47L396.66 121.12L396.29 118.65L397.54 114.03L395.51 110.11L398.31 106.74L397.94 103.05L398.72 102.93L399.54 105.82L398.93 110.66L400.6 111.54L399.89 107.99L402.5 105.99L405.75 105.72L408.64 108.61L407.25 104.36L407.09 98.62L409.81 97.5L413.57 97.74L416.97 97.01L415.69 94.01L417.51 90.09L419.3 89.92L422.34 86.85L426.47 86.01L427 84.25L431.1 83.65L432.38 85.1L435.89 81.62L438.76 81.73L439.19 78.81L440.69 75.84L444.38 72.87L447.06 75.22L444.93 76.97L448.47 78.04L448.9 81.4L450.33 79.76L454.9 79.85L458.43 83.11L459.68 85.54L459.29 88.8L457.56 90.61L453.45 93.91L452.27 95.63L454.21 96.43L456.53 97.85L457.94 96.78L458.73 100.35L459.42 98.92L461.92 98.04L466.94 98.96L467.32 101.52L473.86 102.32L473.95 98.15L477.27 99.12L479.76 99.09L482.29 101.96L483.01 105.33L482.09 107.47L484.05 111.37L486.51 113.31L488.02 108.19L490.53 110.42L493.2 109.1L496.23 110.61L497.38 109.23L499.94 109.93L498.82 105.24L500.88 102.97L515 106.35L516.34 109.34L520.43 113.05L526.75 112.14L529.86 112.93L531.16 114.88L530.97 118.24L532.9 119.52L534.99 118.6L537.76 118.48L540.71 119.36L543.67 118.86L546.4 122.76L548.33 121.38L547.06 118.55L547.76 116.53L552.76 117.81L556.01 117.54L560.5 119.68L562.69 121.6L566.52 124.87L570.62 128.96L570.49 131.44L571.54 132.41L571.18 129.54L575.43 130.13L578.59 133.81L577.04 135.47L574.47 135.86L574.43 139.46L573.81 140.21L572.34 140.11L571.15 138.85L569.07 137.77L568.72 136.16L567.13 135.55L565.35 136.03L564.5 134.71L564.84 133.29L562.96 134.2L563.67 135.98L562.78 137.56L562.77 137.59L560.76 139.2L558.74 138.93L560.15 140.85L561.08 143.75L561.8 144.68L561.98 146.09L561.58 146.99L558.66 146.25L554.29 148.76L552.9 149.15L550.51 151.44L548.24 153.39L547.66 154.81L545.42 152.64L541.35 155.1L540.63 153.94L539.13 155.27L537.03 154.85L536.53 156.88L534.66 159.79L534.71 160.98L536.49 161.63L536.28 165.8L534.83 165.9L534.16 168.22L534.81 169.39L532.08 170.77L531.54 173.78L529.21 174.42L528.74 177.01L526.49 179.35L525.91 177.63L525.24 173.9L524.37 167.96L525.12 164.08L526.44 162.37L526.52 161L528.96 160.35L531.75 156.56L534.45 153.37L537.26 150.82L538.51 146.15L536.61 146.43L535.67 149.18L531.71 152.73L530.42 148.74L526.39 149.86L522.47 155.19L523.76 157.08L520.27 157.87L517.86 158.18L517.97 155.98L515.53 155.51L513.6 157.02L508.82 156.49L503.67 157.39L498.61 163.16L492.61 169.73L495.08 170.07L495.85 171.74L497.37 172.33L498.36 171L500.08 171.17L502.34 174.07L502.39 176.26L501.17 178.77L501.04 181.71L500.33 185.53L497.97 188.89L497.45 190.46L495.32 193.06L493.21 195.59L492.21 196.86L490.12 198.11L489.13 198.14L488.15 197.1L486.05 198.66L485.81 199.36L485.21 199.23L484.53 199.95L484.06 200.66L484.12 202.15L483.31 202.6L483.03 202.97L482.44 203.57L481.4 203.9L480.72 204.45L480.67 205.33L480.48 205.55L481.11 205.87L482 206.75L483.35 209.08L483.73 210.35L483.74 212.57L483.15 213.62L481.73 213.98L480.48 214.77L479.07 214.93L478.9 213.9L479.19 212.47L478.5 210.46L479.66 210.13L478.59 208.46L477.83 208.08L477.64 208.45L477.18 208.61L477.13 208.24L476.72 208.06L476.3 207.74L476.73 206.87L477.1 206.63L476.96 206.27L477.35 205.19L477.25 204.86L476.34 204.64L475.6 204.09L473.42 204.68L472.27 205.63L470.58 206.17L471.41 205.24L471.08 204.46L472.32 203.09L471.5 202.01L470.14 202.74L468.37 204.15L467.4 205.46L465.87 205.55L465.07 206.49L465.9 207.84L467.17 208.16L467.22 209.04L468.46 209.61L470.21 208.21L471.6 208.97L472.61 209.02L472.87 210.05L470.66 210.59L469.92 211.64L468.4 212.6L467.6 213.93L469.28 214.97L469.9 216.82L470.85 218.52L471.91 219.93L471.88 221.29L470.9 221.78L471.27 222.75L472.19 223.31L471.95 224.76L471.56 226.17L470.68 226.32L469.54 228.23L468.27 230.51L466.82 232.56L464.67 234.13L462.49 235.56L460.73 235.75L459.78 236.5L459.24 235.95L458.35 236.79L456.16 237.63L454.51 237.88L453.97 239.64L453.1 239.73L452.69 238.53L453.06 237.88L450.96 237.35L450.22 237.62L448.13 239.05L446.83 240.62L446.48 241.76L447.68 243.49L449.14 245.61L450.56 246.61L451.5 247.91L452.22 250.88L452.01 253.68L450.7 254.72L448.91 255.74L447.63 257.06L445.68 258.52L445.11 257.51L445.55 256.45L444.39 255.55L443.08 255.32L442.44 254.5L441.65 252.86L440.25 252.12L438.91 252.15L439.14 250.9L437.76 250.91L437.64 252.66L436.79 254.98L436.29 256.37L436.39 257.51L437.41 257.56L438.05 258.99L438.33 260.35L439.2 261.25L440.15 261.43L440.95 262.24L441.31 262.39L442.24 263.33L442.9 264.38L442.99 265.42L442.82 266.13L442.97 266.67L443.09 267.59L443.64 268.02L444.25 269.39L444.22 269.91L443.11 270.02L441.64 268.87L439.78 267.64L439.6 266.85L438.7 265.8L438.48 264.51L437.91 263.67L438.09 262.53L437.74 261.86L437.12 261.26L436.85 260.49L436.02 259.6L435.26 258.86L435.01 259.78L434.71 258.91L434.89 257.93L435.35 256.41L435.2 255.24L435.68 254.03L435.15 253.1L435.28 251.36L434.65 250.53L434.14 248.62L433.85 246.58L433.18 245.24L432.15 246.05L430.37 247.2L429.49 247.06L428.52 246.68L429.06 244.67L428.74 243.14L427.51 241.25L427.7 240.66L426.79 240.44L425.67 239.09L425.23 238.22L425.14 237.37L424.84 236.56L424.19 235.58L422.75 235.51L422.89 236.21L422.4 237.14L421.74 236.8L421.51 237.11L421.07 236.92L420.46 236.77L420.24 237.39L419.18 237.36L417.25 237.71L417.33 238.96L416.5 239.95L414.24 241.06L412.49 242.99L411.32 244.02L409.76 245.09L409.76 245.84L408.98 246.24L407.57 246.82L406.84 246.9L406.37 248.14L406.69 250.22L406.77 251.55L406.11 253.06L406.11 255.76L405.3 255.83L404.58 257.04L405.06 257.56L403.63 258L403.1 259.08L402.47 259.53L401 258.06L400.27 255.85L399.67 254.26L399.12 253.5L398.29 251.97L397.9 249.98L397.63 248.97L396.21 246.76L395.56 243.61L395.09 241.51L395.1 239.51L394.8 237.95L392.52 238.95L391.42 238.75L389.38 236.72L390.13 236.11L389.67 235.45L387.83 234.01L386.69 233.58L386.22 232.35L385.01 231.05L382.12 231.37L379.58 231.41L377.38 231.65L374.39 231.13ZM506.24 195.18L505.04 194.45L503.21 192.15L502.74 193.87L502.29 196.87L500.61 196.99L499.84 198.63L500.05 200.72L501.79 200.68L502.65 198.39L505.11 199.83L506.48 197.73L508.8 197.14L508.46 194.72L507.34 195.64L506.24 195.18ZM500.01 275.68L498.85 275.13L497.51 274.58L496.12 274.58L494.32 275.52L493.02 277.17L491.4 276.24L490.97 273.72L490.72 273.14L488.21 272.51L487.41 273.02L485.3 273.39L485.96 274.16L487.36 274.44L487.98 275.37L490.26 275.38L490.4 275.79L489.28 275.76L487.6 276.32L488.79 277.08L488.8 277.76L489.15 278.33L489.76 278.19L490.22 277.43L492.57 278.87L493.86 279L496.89 280.32L497.64 281.63L498.05 283.33L497.06 283.77L496.4 285.04L498.38 284.99L498.77 284.55L500.36 284.87L501.75 286.15L501.72 281.04L501.69 275.98L500.01 275.68ZM468.95 248.4L469.72 249.32L469.92 248.74L470.39 249.12L469.9 249.53L469.82 250.19L470.6 250.54L472.02 250.31L473.02 251.27L473.42 250.68L474 251.52L475.22 252.3L475.38 251.56L474.87 251.18L475.02 250.31L473.06 249.42L472.37 249.61L471.54 249.43L471.19 248.15L471.44 246.85L472.36 246.32L472.77 244.97L472.23 243.8L472.49 243.12L472.35 242.7L471.87 243.13L470.91 242.66L469.96 242.66L469.45 244.14L469.29 246.68L468.66 246.14L468.71 247.7L468.95 248.4ZM490.41 216.56L491.06 217.15L491.94 216.02L491.74 215.38L490.59 214.97L489.95 215.76L489.06 215.55L488.19 216.66L488.18 217.54L489.2 218.07L489.61 216.99L490.41 216.56ZM490.91 281.5L491.06 282.68L491.86 281.61L491.87 280.87L491.51 280.41L491.19 280.94L490.91 281.5ZM445.96 65.1L441.99 60.45L440.82 59.9L439.53 60.85L436.68 71.23L445.5 68.29L445.96 65.1ZM429.69 62.41L434.05 64.76L437.46 63.75L437.85 56.15L434.24 47.21L431.2 42.17L427.82 44.47L423.76 51.07L425.89 52.89L427.1 59.22L429.69 62.41ZM406.5 256.6L405.79 259.15L406.07 261.41L406.81 262.65L408.17 262.29L408.83 261.85L409.07 260.22L408.31 258.58L407.58 257.47L406.5 256.6ZM499.91 100.17L500.18 100.46L503.39 101.06L505.76 101.02L505.57 99.59L503.35 97.46L501.39 97.98L499.91 100.17ZM506.84 91.89L508.08 87.35L502.43 83.96L498.3 83.68L496.23 84.9L495.39 89.22L498.49 93.13L501.08 91.72L506.84 91.89ZM564.73 112.81L566.34 111.66L566.48 110.99L564.21 109.59L562.89 109.58L562.68 109.79L560.69 111.82L560.97 113.34L562.69 113.1L564.73 112.81ZM516.91 90.3L512.98 88.69L510.06 87.75L509.69 89.75L512.59 92.14L515.1 92.67L516.91 90.3ZM447.11 276.7L446.35 275.72L445.2 275.58L444.65 274.71L444.39 273.62L443.82 273.59L442.92 273.04L443.55 271.78L442.36 271.07L441.46 269.77L440.14 268.7L438.55 268.68L437.07 267.01L436.2 266.36L434.99 265.31L433.61 263.78L431.19 263.48L430.18 263.42L430.32 264.21L431.95 265.93L433.12 266.8L433.94 268.14L435.35 269.11L435.93 270.32L436.39 271.66L437.76 272.95L438.95 275.13L439.72 276.29L440.9 277.56L441.57 278.5L443.58 279.77L444.9 281.08L446.63 281.04L446.72 278.63L447.11 276.7ZM466.12 284.98L465.56 284.56L465.14 285.12L464.28 285.13L463.74 286.03L464.59 286.04L465.67 285.83L467.48 285.51L467.08 284.85L466.12 284.98ZM467.23 286.86L469.31 287.97L469.96 287.94L470.06 287.52L469.51 287.04L468.69 286.55L467.23 286.86ZM468.35 255.44L468.07 254.16L467.25 255.73L466.31 256.82L465.18 257.79L464.41 258.89L466.49 257.4L467.32 256.31L468.35 255.44ZM468.9 272.74L469.13 271.57L470.49 271.34L473.1 271.26L474.6 271.57L475.78 271.26L477.04 269.73L476.76 269.38L475.22 270.51L473.42 270.57L471.45 270.36L470.23 269.9L468.9 271.05L468.57 271.69L467.78 274.04L467.56 275.27L466.91 276.29L467.4 277.36L468.06 277.37L468.3 278.87L467.85 280.3L468.52 280.76L469.51 280.53L469.45 278.3L469.32 276.49L470.36 276.01L470.24 277.53L471.37 278.44L471.17 279.05L471.56 279.48L473.09 278.87L472.33 280.15L472.95 280.7L473.78 280.24L473.8 279.21L472.39 277.42L472.67 276.88L471.2 274.89L472.57 274.29L473.25 273.38L473.94 273.6L474.06 272.89L471.15 273.42L470.3 274.13L468.9 272.74ZM469.96 284.78L468.71 285.11L468.72 285.69L470.8 285.88L473.15 285.43L473.38 284.56L471.98 285.14L470.94 285.25L469.96 284.78ZM465.42 270.72L467.27 270.53L465.52 269.09L465.78 268.38L464.64 266.91L465.52 265.5L466.67 264.97L466.39 264.21L467.44 264.14L467.55 263.52L466.25 263.05L465.22 262.62L465.14 261.94L464.34 261.15L463.71 261.15L462.92 262.37L461.72 263.46L460.38 264.31L459.77 264.9L459 265.89L457.87 267.12L456 267.45L455.33 267.75L455.02 269.07L453.81 269.36L452.66 268.82L451.73 269.85L451.55 271.29L451.77 272.65L452.52 273.98L453.3 274.41L453.54 276.5L454.83 276.68L455.86 276.59L456.42 277.35L458.28 276.79L459.06 277.28L460.18 277.37L460.8 278.33L462.58 277.62L462.81 278.18L463.41 275.79L463.45 274.24L464.95 273.18L464.89 271.78L465.42 270.72ZM454.78 240.71L454.43 240.07L453.53 240.04L451.82 240.5L451.05 241.25L451.1 242.66L452.38 243.17L453.73 242.38L454.09 241.43L454.78 240.71ZM457.29 282.76L454.39 282L454.04 282.65L451.05 282.49L450.83 281.94L450.19 281.82L448.93 281.21L447.03 281.12L445.96 282.61L447.39 282.73L447.67 283.4L450.52 284.05L451.17 283.86L452.32 284.01L454.13 284.61L455.59 284.89L457.22 285.01L458.63 284.97L460.35 285.6L462.14 285L460.22 284.07L457.86 283.77L457.29 282.76Z" id="a4r9SVDGwh"></path><path d="M315.23 71.12L314.28 68.7L317.53 67.15L318.14 70.04L320.4 71.73L316.91 74.72L314.14 73.03L315.23 71.12ZM313.12 58.01L317.74 59.44L322.27 58.43L324.59 53.68L321.53 50.44L317.57 48.07L315.99 50.91L313.72 48.63L308.88 51.26L310.6 55.43L312.84 55.6L313.12 58.01ZM304.67 72.59L303.25 75.17L306.61 79.43L308.5 79.17L309.24 73.3L310.61 71.91L311.48 66.29L315.42 63.13L310.27 56.83L308.3 53.72L306 54.03L305.41 57.06L303.18 57.19L302.32 54.08L298.06 57.26L299.28 63.84L302.32 70.44L304.67 72.59ZM256.43 131.66L253.88 133.73L251.92 132.64L249.54 134.73L247.1 132.12L244.73 132.69L243.68 135.19L246.96 136.06L247.02 137.16L244.26 137.87L247.66 139.65L246.12 141.24L250.48 142.36L252.54 142.88L253.89 142.24L258.4 139.79L260.44 137L258.67 134.43L259.03 131.94L256.43 131.66ZM273.83 166.83L274.34 167.6L273.77 168.83L274.15 169.56L276.04 170.04L276.07 170.07L277.11 171.72L276.89 173.25L276.89 173.25L274.56 173.01L274.26 174.72L275.12 176.11L273.49 176.89L273.93 177.9L276.37 178.31L276.38 178.31L274.98 178.86L272.69 181.44L273.52 181.93L274.62 181L276.07 181.28L277.1 180.13L277.83 180.61L280.49 179.94L282.58 179.96L283.99 178.66L283.36 177.36L284.16 176.62L284.35 174.98L282.45 174.49L282.01 173.47L281.04 170.45L279.97 170.02L278.58 166.79L278.45 166.5L276.84 166.32L278.24 163.79L278.65 161.44L276.94 161.42L275.34 161.82L277.01 158.63L275.13 158.88L273.88 158.64L272.66 161.05L272.09 164.04L272.89 165.48L272.99 168.14L273.83 166.83ZM356.16 54.11L357.99 52.61L358.2 51.09L359.61 50.38L361.71 49.14L362.31 47.68L359.99 45.53L358.52 47.15L357.62 49.44L357.3 46.85L354.92 46.97L351.87 48.72L355.35 49.01L354.46 51.94L356.16 54.11ZM362.2 107.29L362.43 109.98L365.27 111.29L365.68 113.42L370.79 114.04L371.72 113.63L368.73 109.66L368.41 105.46L370.86 100.36L373.19 94.89L378.05 89.21L382.82 86.23L388.36 83.03L389.41 80.96L388.32 78.27L385.28 79.16L382.6 81.67L377.39 82.9L372.23 87.04L368.73 90.3L369.16 93.02L365.41 98.06L366.85 98.74L363.75 103.35L363.81 106.19L362.2 107.29ZM303.22 207.89L301.39 207.71L301.17 208.73L303.35 209.73L304.15 209.94L305.34 210.67L305.67 209.67L305.44 209.06L306 207.51L304.81 207.67L303.22 207.89ZM333.26 213.04L333.03 213.49L332.92 213.5L332.17 213.58L332.54 214.34L333.31 214.59L334.91 213.82L334.86 213.67L334.75 213.31L335.8 212.49L334.38 213.06L333.26 213.04ZM320.87 212.97L319.65 213.08L318.8 212.43L318.51 213.25L320.41 213.62L320.4 213.93L322.65 213.77L322.85 213.21L321.99 213.44L322.03 213.1L320.87 212.97ZM271.11 176.2L272.29 173.9L272.03 172.03L272.87 170.19L271.19 168.51L269.88 168.62L268.7 169.89L266.57 171.98L267.38 174.64L266.12 177.31L268.33 177.7L271.11 176.2ZM381.05 119.02L376.44 117.66L375.62 119.14L377.26 121.7L375.48 124.54L373.7 121.96L371.38 123.74L368.45 123.86L367.33 125.3L365.38 124.86L366.92 122.27L365.75 122.06L360.29 125.71L357.02 127.67L356.63 130.24L354.22 131.1L352.99 129.75L352.98 127.49L354.96 126.99L354.06 124.65L349.69 123.29L350.84 125.91L350.08 128.37L351.38 130.76L350.47 133.44L349.01 132.08L347.57 131.86L343.92 135.62L344.98 138.34L343.66 139.23L339.88 136.94L338.89 138.34L339.83 139.91L339.63 141.64L338.41 140.71L336.39 139.62L336.29 135.85L336.19 134.09L333.64 131.25L334.79 130.75L341.78 133.71L344.33 132.68L346.07 130.62L345.96 127.94L344.76 125.98L338.85 121.16L334.57 120.11L332 117.4L330.38 118.96L328.67 116.11L330.69 114.87L325.79 111.39L322.99 112.35L320.14 112.14L317.75 116.04L315.18 115.79L311.75 117.79L307.45 123.31L304.83 126.47L301.07 134.15L298.21 139.34L295.12 143.01L290.99 145.9L289.55 148.07L290.05 155.46L290.6 158.73L292.77 160.25L294.85 159.55L297.94 156.06L298.99 157.92L300.18 162.11L301.49 165.35L301.99 167.98L303.8 167.85L304.69 165.65L306.59 165.92L307.47 163.26L308.07 158.33L309.7 157.62L311.14 154.15L309.64 152.4L308.53 150.13L309.67 145.43L312.68 142.46L315.17 139.59L314.93 137.35L316.44 134.73L319.13 133.65L321.31 135.45L321.47 137.03L320.43 137.81L316.85 141.72L315.43 143.92L314.69 145.92L315.44 148.94L315.1 152.13L316.62 153.18L317.52 154.89L320.06 154.23L322.81 153.08L325.65 152.83L327.29 154.32L325.51 156.03L323.9 156.12L322.21 155.62L320.24 156.06L318.26 156.92L318.39 158.65L319.38 159.71L319.96 159.34L319.77 161.08L319.47 163.3L318.22 163.36L316.97 161.19L315.5 162.19L314.73 163.99L314.67 166.12L315.01 168.44L312.85 169.32L312.49 170.51L310.99 170.48L310.87 169.82L309.31 169.36L307.34 170.28L304.9 171.51L303.82 172.29L303.09 171.45L301.32 170.39L300.44 171.12L298.85 171.63L298.86 170.68L297.29 170.05L297.26 169L296.83 167.67L297.96 165.67L298.42 165.97L298.81 164.91L297.96 164.49L297.77 163.69L298.23 162.75L298.29 161.26L297.03 162.08L296.48 162.87L295.1 163.05L294.66 163.91L294.4 164.68L294.44 167.54L295.08 169.05L295.15 170.58L295.51 171.58L294.45 172.88L294.16 172.3L292.85 172.45L292.54 173L291.24 172.93L289.1 174.02L287.73 177.78L286.93 178.47L285.67 178.96L284.3 179.46L283.84 181.48L280.19 183.36L278.72 182.33L279.21 185.03L276.58 184.42L274.55 184.93L274.71 186.64L277.1 187.54L278.26 188.7L279.87 191.08L279.57 195.47L278.77 196.77L276.24 196.7L274.94 196.81L273.28 196.44L271.18 196.45L269.26 196.06L267.05 197.61L267.69 198.53L267.61 200.03L267.68 200.73L267.99 201.48L268.03 202.35L267.7 203.59L267.59 204.41L266.97 205.14L266.84 206.45L267.22 207.21L267.91 207.39L268.06 208.61L267.82 210.14L268.63 209.93L269.45 210.2L270.08 209.69L271.55 210L271.99 211.11L272.57 211.76L273.33 211.93L273.93 211.19L274.91 210.51L276.4 210.55L278.39 210.52L279.5 209.02L280.68 208.63L281.02 207.35L281.92 206.46L281.31 205.31L281.92 203.66L282.88 202.53L283.02 201.84L285.02 201.4L286.5 200.02L286.42 198.79L286.6 197.52L288.87 196.82L291.96 197.4L293.38 196.19L294.03 196.04L294.93 195.03L295.65 194.74L296.92 195.46L297.7 195.71L298.19 197.83L299.26 199.05L300.68 200.42L301.91 201.35L303.06 201.49L303.73 202.32L304.74 202.69L305.2 203.57L305.85 203.83L306.33 204.85L306.94 206.02L306.6 206.45L306.28 207.51L306.27 208.12L306.93 207.96L307.76 206.26L308.42 206.14L308.6 205.09L307.47 204.34L308.13 203.03L309.49 203.36L310.36 204.31L310.65 203.58L310.49 203.2L309.15 202.13L308 201.5L306.6 200.75L307.04 200.34L306.66 199.88L305.43 199.89L303.69 198.19L302.9 196.42L301.44 195.33L300.92 194.22L301.11 193.59L301.02 192.5L302.3 191.7L303.54 192.03L303.19 192.23L303.14 192.26L303.1 193.03L303.57 193.77L304.05 192.81L305.05 193.16L305.08 193.91L305.79 194.83L305.48 194.99L306.79 196.58L308.22 197.21L309.13 197.98L310.6 198.77L310.6 198.77L311.28 199.19L311.72 199.88L312.05 200.04L312.31 200.37L312.1 201.01L311.96 202.43L312.1 203.4L312.96 204.09L313 204.53L313.26 204.67L313.37 205.25L314.17 206.39L314.78 207.31L315.05 208.62L315.64 210.19L316.92 211.03L317.96 211.01L317.37 209.29L318.36 209.09L317.9 208.08L319.34 208.61L319.32 207.49L318.55 206.92L317.68 206L318.27 205.55L317.49 204.61L317.13 203.39L317.43 202.94L318.26 203.99L319.13 203.99L319.92 203.66L318.84 202.51L320.73 201.98L321.55 202.17L322.5 202.23L322.48 202.65L322.97 203.61L324.28 202.5L324.94 201.87L326.8 201.76L327.09 201.25L325.72 200.58L325.54 199.78L325.03 198.58L325.6 197.05L326.42 196.16L326.85 193.53L327.33 193.74L328.09 193.27L328.05 192.7L329.26 191.04L329.84 189.8L331.29 189.52L331.4 190.36L333.83 190.93L334.28 191.45L332.79 192.19L332.51 192.61L334.22 193.26L333.87 194.29L334.74 194.74L336.87 193.47L338.58 193.09L338.89 192.29L337.29 192.43L336.53 191.89L336.44 190.5L337.79 189.66L339.25 189.54L340.3 188.8L341.55 188.62L342.95 188.25L342.99 188.75L340.69 189.68L341.56 190.58L340.26 192.45L339.13 192.8L340.48 194.1L342.26 194.92L344.25 196.75L344.83 197.4L345.69 197.65L346.6 198.43L346.99 199.87L346.75 200.76L344.9 201.84L343.56 201.66L341.74 201.98L339.49 201.18L336.77 199.71L334.18 199.75L332.35 200.34L330.47 201.69L327.49 201.42L326.84 202.99L324.43 203.07L322.69 205.01L323.68 205.97L322.93 207.52L324.07 208.62L324.99 210.56L326.7 210.53L328.21 211.56L329.3 211.33L329.66 210.53L331.34 210.59L332.61 211.63L334.99 211.41L336.06 210.3L337.37 210.74L338.33 210.58L337.74 211.3L338.31 212.18L338.73 211.75L339.15 211.33L339.23 210.25L339.74 210.63L341.47 210.08L342.3 210.45L343.59 210.45L345.39 209.72L346.23 209.75L348.01 209.45L348.68 209.14L350.5 209.39L351.05 209.89L351.79 209.56L350.94 207.99L351.25 207.37L350.76 205.08L351.83 204.51L352.07 205.27L352.87 206.2L353.94 206.46L354.51 206.4L356.35 204.92L356.94 204.77L357.4 205.36L356.86 206.35L357.84 207.4L358.23 207.3L358.18 206.31L358.76 205.84L359.02 205.14L359.3 203.56L360.59 203.4L360.11 202.85L359.38 202.75L358.58 201.29L357.76 200.19L356.05 197.71L356.21 196.26L354.78 194.2L356.34 191.92L357.86 191.55L358.57 190.21L357.78 189.85L357.94 188.67L356.94 187.13L355.78 187.2L354.45 185.62L355.35 183.83L354.9 183.34L356.15 180.68L357.75 182.09L357.95 180.31L361.18 177.61L363.62 177.54L367.07 179.27L368.92 180.27L370.58 179.22L373.07 179.17L375.07 180.45L375.52 179.72L377.72 179.83L378.11 178.65L375.58 176.92L375.78 176.75L375.62 176.69L375.17 175.64L374.12 175.27L374.07 173.79L374.7 172.56L375.44 171.79L375.05 170.81L373.99 170.21L372.97 170.84L371.91 171.68L370.9 170.38L370.23 169.36L369.5 168L371.22 167.79L372.65 167.44L373.58 165.95L373.41 164.75L372.23 163.77L372.54 162.42L373.75 160.89L374.74 158.92L375.73 156.13L376.48 151.2L377.53 140.06L380.45 137.79L383.14 134.75L385.33 133.01L387.43 130.85L388.56 128.6L388.05 124.5L383.22 120.41L381.05 119.02ZM294.49 202L294.84 203.17L294.9 205.62L295.5 206.15L296.13 205.48L296.84 205.6L297.06 202.92L296.12 201.46L295.34 202.11L294.49 202ZM296.68 199.5L296.41 197.69L295.4 198.5L295.08 199.28L295.45 200.7L296.16 201.11L296.68 199.5ZM301.57 167.31L301.07 165.92L298.78 166.84L298.99 167.99L300.63 169.53L301.57 167.31Z" id="j1K1gXWaR3"></path><path d="M543.67 297.89L543.16 298.1L542.64 297.39L542.69 296.95L543.67 297.89ZM542.36 296.51L542.77 296.71L542.52 295.41L541.77 294.91L541.8 296.15L542.03 296.6L542.36 296.51ZM388.96 358.76L388.86 359.24L388.63 360.23L388.67 361.5L391.07 361.35L391.51 360.25L391.45 359.8L389.97 359.51L388.96 358.76ZM530.94 286.37L530.84 286.99L531.17 287.24L532.13 287.4L532.74 287.36L532.48 286.95L531.97 286.61L530.94 286.37ZM525.92 282.48L526.56 283.12L527.25 283.48L527.56 283.39L526.94 282.87L526 282.22L525.92 282.48ZM530.84 284.44L529.56 283.72L528.84 283.35L528.61 283.51L529.19 284.03L530.05 284.6L531.28 285.26L531.21 284.94L530.84 284.44ZM533.48 287.88L534.07 288.85L535.17 288.86L534.73 288.32L534.41 288.26L533.48 287.88ZM534.03 286.92L533.41 286.17L532.85 284.92L532.32 284.92L532.64 285.85L533.8 287.21L534.03 286.92ZM503.36 286.23L504.23 286.49L505.46 285.95L505.26 284.79L506.21 284.27L507.54 283.83L509.58 284.51L510.4 285.89L511.28 286.75L512.5 287.76L514.08 288L515.42 288.17L515.81 288.58L516.85 288.47L517.02 288.01L515.36 287.35L515.82 287.05L514.61 286.78L514.68 286.09L513.78 286.14L512.76 284.47L511.37 283.44L511.02 282.4L512.46 282.23L512.08 281.4L509.48 280.44L509.24 279.52L508.37 278.73L507.29 277.93L504.4 277.04L501.68 275.97L501.71 281.04L501.74 286.17L503.36 286.23ZM516.14 281.77L516.95 281.4L517.8 281.02L518.05 280.58L518.87 280.45L519.39 279.5L519.42 278.63L519.11 278.38L518.17 278.41L518.34 279.33L517.46 279.88L517.02 280.42L516.13 280.54L515.98 279.71L515.76 279.74L515.52 280.49L514.67 280.61L513.27 280.39L513.14 280.87L514.03 281.31L515.31 281.77L516.14 281.77ZM519.53 277.83L519.89 278.43L520.19 279.35L520.68 278.94L520.49 278.13L519.89 277.63L519.27 276.98L518.61 276.6L518.08 276.26L517.24 275.83L516.8 276.2L517.93 276.66L518.82 277.32L519.53 277.83ZM523.21 280.25L523.04 279.78L522.83 279.93L523.16 281.12L523.85 282.12L524.52 282.72L524.96 282.56L525.18 282.12L524.44 281.59L523.69 280.6L523.21 280.25ZM552.13 342.66L551.77 341.81L551.43 340.93L550.33 341.88L550.09 343.03L549.5 343.56L548.81 345.13L547.87 346.24L546.53 347.36L545.41 348.18L544.4 348.58L542.43 350.74L541.59 352.39L541.85 353.22L543.55 353.38L544.57 354.12L546 354.17L546.79 353.53L548.01 352.52L548.9 350.27L549.32 348.84L550.66 348.03L551.86 348L551.29 346.96L552.09 346.1L553.11 344.54L553.69 343.57L553.69 342.69L553.24 341.82L552.13 342.66ZM557.63 335.68L556.37 335.04L556.14 333.56L555.43 333.03L555.39 334.36L554.26 332.31L553.82 330.6L552.6 330.11L551.75 329.05L551.17 329.2L551.82 330.55L553.06 332.24L553.8 333.04L553.76 333.38L554.4 334.69L554.47 335.96L554.21 337.49L553.07 338.19L553.03 338.92L554.71 339.73L555.23 340.85L554.32 342.54L554.98 342.84L555.24 343.39L556.45 342.56L557.23 341.15L557.82 340.05L558.05 339.67L557.9 338.8L558.32 338.19L559.52 338.22L559.99 337.06L560.37 335.3L559.58 335.07L558.69 335.84L557.63 335.68ZM541.73 306.5L540.44 305.46L539.94 304.99L539.25 304.43L538.38 303.87L537.7 303.84L537.92 304.41L538.96 305.58L539.97 306.47L541.09 307.22L541.95 307.67L542.54 307.27L541.73 306.5ZM561.78 297.75L561.28 297.84L560.5 298.17L560.7 298.78L561.7 298.44L562.69 298.04L562.82 297.95L563.01 297.17L562.69 297.24L561.78 297.75ZM559.05 299.37L558.45 299.93L558.6 300.65L559.46 300.85L560.43 300.62L560.69 299.77L560.15 299.3L559.76 299.57L559.05 299.37ZM510.93 341.97L510.07 342.26L508.56 341.54L507.54 341.36L507.5 342.31L508.41 344.12L508.62 345.52L509.58 347.35L510.54 347.41L510.87 347.53L511.95 346.04L512.5 346.63L512.66 344.92L513.2 344.19L513.09 341.72L512.15 341.58L510.93 341.97ZM520.67 313.94L520.23 312.55L519.01 311.16L518.28 310.51L517.17 309.47L516.91 307.68L516.52 307.93L515.89 307.2L515.26 307.57L514.65 305.76L513.76 304.71L513.97 304.31L512.92 303.59L511.81 302.81L510.12 301.95L509.61 300.84L509.76 299.99L509.34 298.59L508.94 298.4L508.7 297.59L508.37 296.21L508.53 295.49L507.77 294.86L507.26 294.18L506.25 294.78L505.69 293.53L505.74 292.95L505.63 292.05L505.06 291.24L504.99 290.57L504.6 290.38L504.49 289.38L504.05 288.61L503.47 289.2L503.43 289.65L503.14 290.52L502.76 291.36L503.01 291.89L502.7 292.22L502.5 293.42L502.68 294.34L502.56 294.81L502.78 295.58L502.31 296.86L502.11 297.75L501.79 298.47L501.49 299.35L500.46 299.91L498.96 299.35L498.72 298.85L497.9 298.43L497.46 298.43L496.33 297.47L495.52 296.92L494.32 296.4L493.08 295.5L492.96 295.05L493.52 294.27L493.98 293.47L493.8 292.83L494.33 292.77L494.92 292.12L495.34 291.27L494.62 290.48L494.25 290.79L493.67 290.65L492.75 291.11L491.78 290.62L491.33 290.78L490.02 290.37L489.19 289.72L488.15 289.33L487.32 289.56L488.46 290.08L488.49 290.89L487.17 291.19L486.38 291L485.43 291.57L484.75 292.47L484.99 292.87L484.29 293.29L483.54 294.57L483.87 295.45L482.88 295.3L481.9 295.29L481.03 294.34L479.88 293.6L479.12 293.82L478.43 294.05L478.4 294.45L477.72 294.26L477.7 294.71L476.91 294.98L476.53 295.62L475.68 296.41L475.49 297.64L474.79 297.29L474.3 298.08L474.86 298.85L474.2 299.17L473.54 297.77L472.45 299.15L472.41 300.03L472.33 300.69L471.42 301.52L471.02 302.4L470.17 303.13L468.52 303.62L467.66 303.58L467.25 303.73L467.01 304.09L466.06 304.27L464.83 304.89L464.4 304.69L463.69 304.81L462.5 305.43L461.73 306.14L460.46 306.7L459.8 307.85L459.69 306.58L459.04 307.79L459.21 308.78L459 309.62L458.68 310.04L458.51 311.03L458.87 311.54L459.02 312.08L459.8 313.44L459.83 314.33L459.36 313.66L458.59 313.15L459.12 314.76L458.43 314.01L458.65 314.75L459.54 316.13L459.74 317.51L460.43 318.21L460.47 318.73L461.09 319.89L461.03 320.91L461.28 321.95L462.11 323.78L462.28 324.87L462.09 326.15L462.15 326.82L461.88 327.25L461.1 327.5L461.07 328.58L461.91 328.94L463.57 330.15L464.62 330.15L465.76 330.22L466.52 329.62L467.3 329.08L467.76 329.16L468.69 328.16L469.76 328.08L470.89 327.87L472.27 328.21L473.25 328.04L474.58 328L475.16 327.24L475.46 326.26L476.82 325.83L478.48 324.89L479.97 325.01L481.75 324.4L483.78 323.74L486.58 323.56L488.08 324.46L489.18 324.51L491.19 325.62L490.89 326.05L491.72 326.75L492.7 328.11L492.65 329.1L493.87 329.88L494.46 328.38L495.44 327.74L496.71 326.15L496.84 327.53L496.23 328.45L496 329.54L495.18 330.59L496.57 330.24L497.34 328.93L497.72 330.33L497.2 331.26L498.71 331.49L499.48 332.27L499.84 333.24L500.13 334.73L501.14 335.94L502.65 336.52L503.55 336.66L504.43 336.97L505.78 337.51L507.16 336.07L508.01 335.7L507.76 336.73L508.72 337.08L510.02 337.96L510.96 337.1L511.68 336.33L513.12 335.52L514.88 335.45L515.77 334.77L515.7 334.15L515.9 332.81L516.29 331.37L516.9 330.42L517.36 328.79L517.88 327.85L518.45 326.41L519.61 325.5L520.3 323.83L520.61 322.52L520.58 321.48L521 319.88L521.28 319.06L521.36 317.49L520.62 315.99L520.71 314.93L520.67 313.94Z" id="bfKfTXL8f"></path><path d="M361.09 253.11L360.5 253.12L359.76 253.66L358.93 253.82L358.21 254.05L357.71 254.09L356.81 254.14L356.26 254.43L355.48 254.54L354.1 255.03L352.4 255.22L350.93 255.63L350.15 255.62L349.45 254.96L349.14 254.31L348.63 254.02L347.97 253.58L348.86 253.2L348.91 252.54L348.54 252.05L347.77 251.57L347.28 251.03L346.43 250.11L345.56 249.19L343.42 247.67L342.57 246.89L342.14 245.4L341.23 243.51L340.37 242.91L339.78 242.51L339.2 240.54L338.97 238.84L339.31 238.54L338.81 236.9L338.54 236.55L336.71 235.04L336.66 233.94L336.98 233.64L335.57 231.75L335.07 230.78L334.49 229.84L333.3 227.12L332.35 225.35L331.7 223.47L331.86 223.31L332.98 225.86L333.68 226.65L334.2 227.22L334.57 226.91L334.99 225.99L335.32 224.65L335.76 223.93L334.74 220.83L333.97 221.29L332.75 221.19L331.49 220.76L331.13 221.35L330.71 220.44L329.59 220.22L328.22 220.37L327.58 220.89L326.37 221.46L325.65 221.18L324.09 220.64L322.59 220.16L320.51 220.19L320.13 219.59L318.57 219.37L318.08 219.06L317.49 219.05L316.96 218.23L314.85 217.85L313.77 218.1L312.64 218.97L312.15 219.86L312.51 221.25L311.77 222.08L311 222.55L309.33 221.65L307.13 220.9L305.72 220.54L304.99 218.92L302.92 218.09L301.61 217.78L300.95 217.94L299.12 217.3L298.52 217.01L298.13 216.13L297.32 216.09L297.02 215.07L298.05 214.12L298.26 212.47L297.72 211.99L297.73 211.09L298.51 210.14L298.4 209.77L297.07 210.49L297.12 209.5L296.02 209.26L294.32 210.05L293.25 210.17L292.61 209.72L290.94 209.73L289.47 210.5L288.68 210.21L286.09 210.37L283.44 210.71L281.94 211.31L280.95 212.1L279.26 212.44L277.75 213.48L277.07 213.46L275.45 213.04L273.97 213.18L273.02 212.36L271.87 212.35L271.38 213.52L270.34 215.48L269.18 216.25L267.61 217.11L266.61 218.36L266.4 219.33L265.8 220.91L266.19 223.16L264.88 224.65L264.1 225.12L262.86 226.33L261.41 226.53L260.62 227.21L260.59 227.23L259.6 229.01L258.56 229.65L257.99 230.72L257.95 231.63L257.54 232.63L257.02 232.91L256.15 233.99L255.61 235.18L255.71 235.75L255.2 236.63L254.6 237.08L254.52 237.86L254.46 238.56L255.28 239.28L255.68 240.07L255.53 240.9L255.72 241.72L255.89 243.34L255.7 244.87L255.26 245.68L255.39 246.55L255.02 247.38L254.26 248.52L253.58 248.82L254.36 249.39L255 250.64L254.8 251.35L255.06 252.57L255.16 252.91L255.63 253.25L255.62 253.49L255.98 253.93L256.64 254.04L257.48 254.7L257.93 254.96L258.16 255.31L258.34 256.01L258.73 256.32L259.13 256.53L259.74 257.15L260.43 258.08L260.62 259.24L260.89 259.81L261.7 260.65L262.83 261.28L263.25 261.4L264.31 262.41L265.64 263.26L267.06 264.45L268.68 265.19L269.08 265.18L269.39 265.22L270.94 264.65L272.02 264.2L273.88 263.92L274.88 263.91L275.97 264.21L276.69 264.2L278.08 264.64L279.49 264.19L280.36 263.65L282.82 262.74L284.08 262.4L285.37 262.22L286.75 262.22L287.93 262.2L289.03 263.23L289.55 264.36L290.38 265.33L291.63 265.37L292.24 265.02L292.83 265.1L294.45 264.54L294.43 264.97L294.83 265.19L295.15 265.89L295.87 266.15L296.48 267.18L296.25 268.4L295.72 270.15L296.01 270.38L295.69 271.53L295.31 272.67L294.97 273.16L294.92 273.68L295.87 275.29L296.9 276.57L298.51 278.14L299.79 279.79L300.21 280.97L300.43 281.45L300.28 281.75L301.06 282.74L301.38 283.79L301.85 285.31L301.37 285.93L301.29 286.26L301.67 287.2L302.09 288.16L302.56 288.73L302.64 289.62L302.48 290.8L301.98 291.51L301.08 292.55L300.71 293.21L300.2 294.65L300.12 295.34L299.58 296.82L299.36 298.24L299.5 299.26L299.6 300.51L300.87 302.11L301.21 303.15L302.03 305.13L302.84 306.51L303.45 307.2L303.65 308.12L303.68 310.14L304.21 312.78L304.59 314.02L304.94 315.72L305.55 317L306.71 318.34L307.83 320.65L307.83 320.66L308.62 322.19L309.65 323.89L309.68 325.3L309.18 325.63L309.69 326.88L309.68 327.97L309.89 328.48L309.96 328.22L310.63 329.06L311.16 329.09L311.83 329.77L312.54 329.72L313.51 329.01L314.84 328.71L316.45 327.97L317.1 328.07L318.05 327.84L319.74 328.2L320.52 327.84L321.47 328.12L321.67 327.6L322.47 327.51L324.1 326.78L325.28 325.94L326.39 324.84L328.16 322.95L329.04 321.65L329.48 320.72L330.14 319.82L330.45 319.56L331.51 318.66L331.92 317.86L332.11 316.4L332.5 315.13L332.63 314.21L332.23 314.1L332.09 313.37L332.78 312.73L334.66 311.8L335.95 311.22L336.6 310.61L336.84 309.9L336.47 309.61L336.72 308.83L336.76 307.17L336.48 307.26L336.46 306.76L336.16 305.77L335.41 304.51L335.55 303.33L336.19 302.95L337.29 301.78L337.89 301.48L339.66 299.72L341.42 298.93L342.85 298.31L343.85 297.31L344.46 296.18L344.92 295.04L344.65 294.25L344.59 291.75L344.39 290.35L344.46 288.78L344.21 288.07L343.64 287.72L342.99 286.17L342.44 285.18L342.54 284.43L342.45 283.96L342.88 283.01L342.84 282.6L341.84 282.03L341.75 281.14L342.46 279.22L343.1 278.71L343.4 277.67L343.9 277.04L344.13 275.95L344.71 275.83L345.1 275.19L346.19 274.57L346.54 274.2L346.91 273.38L348.62 271.5L350.07 270.32L352.41 268.77L353.98 267.51L355.82 265.39L357.15 263.64L358.5 261.35L359.46 259.34L360.22 257.59L360.66 255.88L360.99 255.31L360.98 254.48L361.13 253.55L361.09 253.11ZM360.1 295.88L359.94 296.66L359.66 297.13L359.13 296.18L358.84 296.66L359.14 297.86L359 298.55L358.57 298.92L358.47 300.31L357.86 302.22L357.09 304.5L356.12 307.66L355.52 310.01L354.82 311.99L353.54 312.4L352.18 313.13L351.28 312.69L350.03 312.07L349.61 311.17L349.5 309.66L348.95 308.31L348.8 307.1L349.08 305.89L349.8 305.6L349.81 305.05L350.55 303.79L350.69 302.73L350.33 301.95L350.03 300.92L349.91 299.41L350.46 298.51L350.67 297.48L351.45 297.42L352.32 297.09L352.9 296.8L353.59 296.78L354.48 295.86L355.77 294.86L356.24 294.05L356.03 293.37L356.69 293.56L357.55 292.45L357.58 291.49L358.1 290.77L358.65 291.45L359.06 292.13L359.45 293.18L359.69 295.13L360.1 295.88Z" id="ds3wplN1g"></path></defs><g><g><g><use xlink:href="#bfFLw6dfr" opacity="1" fill="#cccccc" fill-opacity="1"></use><g><use xlink:href="#bfFLw6dfr" opacity="1" fill-opacity="0" stroke="#ffffff" stroke-width="0.5" stroke-opacity="1"></use></g></g><g><use xlink:href="#c19Stb1YbT" opacity="1" fill="#cccccc" fill-opacity="1"></use><g><use xlink:href="#c19Stb1YbT" opacity="1" fill-opacity="0" stroke="#ffffff" stroke-width="0.5" stroke-opacity="1"></use></g></g><g><use xlink:href="#a4r9SVDGwh" opacity="1" fill="#cccccc" fill-opacity="1"></use><g><use xlink:href="#a4r9SVDGwh" opacity="1" fill-opacity="0" stroke="#ffffff" stroke-width="0.5" stroke-opacity="1"></use></g></g><g><use xlink:href="#j1K1gXWaR3" opacity="1" fill="#cccccc" fill-opacity="1"></use><g><use xlink:href="#j1K1gXWaR3" opacity="1" fill-opacity="0" stroke="#ffffff" stroke-width="0.5" stroke-opacity="1"></use></g></g><g><use xlink:href="#bfKfTXL8f" opacity="1" fill="#cccccc" fill-opacity="1"></use><g><use xlink:href="#bfKfTXL8f" opacity="1" fill-opacity="0" stroke="#ffffff" stroke-width="0.5" stroke-opacity="1"></use></g></g><g><use xlink:href="#ds3wplN1g" opacity="1" fill="#cccccc" fill-opacity="1"></use><g><use xlink:href="#ds3wplN1g" opacity="1" fill-opacity="0" stroke="#ffffff" stroke-width="0.5" stroke-opacity="1"></use></g></g></g></g></svg>